<svg xmlns="http://www.w3.org/2000/svg" viewBox="0 0 24 24" width="24" height="24" fill="currentColor">
  <path d="M8.22 5.062c.792 0 1.488.118 2.086.353.598.236 1.096.565 1.493.99a3.86 3.86 0 0 1 .917 1.485c.222.585.333 1.233.333 1.944 0 .798-.14 1.503-.42 2.112a4.42 4.42 0 0 1-1.22 1.624c-.534.453-1.189.79-1.966 1.012A8.528 8.528 0 0 1 6.88 15h-4.6v-9.938h5.94zm-3.66 3.738v1.737h3.33c.277 0 .506-.03.687-.091a1.05 1.05 0 0 0 .47-.282c.12-.128.21-.295.27-.5a2.22 2.22 0 0 0 .092-.66c0-.442-.116-.763-.348-.962-.232-.2-.596-.3-.12-.03-.128.006-.41.01l-1.07.01-1.474.004H4.56zm0-2.316v1.442h3.048c.452 0 .802-.09 1.047-.272.246-.18.368-.458.368-.832 0-.39-.115-.674-.345-.852-.23-.178-.58-.267-1.05-.267L4.56 6.484zm11.758 4.26c-.053-.787.168-1.427.662-1.92.494-.493 1.157-.74 1.99-.74.783 0 1.41.224 1.883.67.472.447.722 1.04.748 1.78h-5.283c.002.07.002.14.002.21zm2.652 4.456c.725 0 1.343-.17 1.85-.51a3.155 3.155 0 0 0 1.168-1.416h-1.922a1.272 1.272 0 0 1-.444.606 1.258 1.258 0 0 1-.722.21c-.482 0-.877-.145-1.186-.437-.308-.291-.497-.732-.566-1.32h4.945c.01-.154.016-.31.016-.47 0-1.066-.288-1.928-.865-2.585-.576-.657-1.365-.986-2.364-.986-.99 0-1.785.328-2.385.983-.6.656-.9 1.53-.9 2.622 0 1.064.298 1.923.896 2.58.597.655 1.396.983 2.398.983zm-.51-9.914h3.766V8.12h-3.766V7.286z"/>
</svg>
