<?xml version="1.0" encoding="UTF-8"?>
<svg id="Camada_1" data-name="Camada 1" xmlns="http://www.w3.org/2000/svg" viewBox="0 0 300 300">
  <defs>
    <style>
      .cls-1 {
        fill: #fff;
      }
    </style>
  </defs>
  <path class="cls-1" d="M117.527,160.025c-3.938-2.968-9.329-4.422-15.689-4.422h-32.287v37.739h31.803v.061c2.968,0,5.876-.485,8.359-.969,2.423-.485,4.907-1.454,6.845-2.968s3.453-2.968,4.907-5.391c.969-2.423,1.938-5.391,1.938-8.844,0-6.845-1.938-11.752-5.876-15.205Z"/>
  <path class="cls-1" d="M211.662,136.037c-4.422,0-7.814.969-10.783,2.423s-4.907,3.453-6.845,5.391c-1.938,1.938-2.968,4.422-3.453,6.845-.485,2.423-.969,4.422-.969,6.361h44.1c-.969-7.269-3.453-12.176-6.845-15.629-3.453-3.453-8.844-5.391-15.205-5.391Z"/>
  <path class="cls-1" d="M113.105,131.615c3.392-2.484,4.907-6.845,4.907-12.236,0-2.968-.485-5.876-1.454-7.814-.969-1.938-2.423-3.453-4.422-4.907-1.938-.969-3.938-1.938-6.361-2.423-2.423-.485-4.907-.485-7.814-.485h-28.41v31.863c0-.061,30.349-.061,30.349-.061,5.391,0,9.813-1.454,13.206-3.938Z"/>
  <path class="cls-1" d="M217.8,0H82.2C23.4,0,0,23.4,0,82.2v135.6C0,276.6,23.4,300,82.2,300h135.6c58.8,0,82.2-23.4,82.2-82.2V82.2C300,23.4,276.6,0,217.8,0ZM183.737,89.999h54.882v13.206h-54.882v-13.206ZM149.39,194.312c-2.423,4.907-6.36,9.329-10.783,12.236-4.422,2.968-9.813,5.391-15.689,6.845-5.876,1.454-11.752,2.423-17.628,2.423l-65.665.121V80.67h64.211c6.36,0,12.236.485,17.628,1.938,5.391.969,9.813,2.968,13.751,5.391,3.938,2.423,6.845,5.876,8.844,10.298,1.938,4.422,2.968,9.813,2.968,15.689,0,6.845-1.454,12.721-4.907,17.143-2.968,4.422-7.814,8.359-13.751,11.267,8.359,2.423,14.72,6.845,18.597,12.721,3.877,5.876,6.36,13.206,6.36,21.565,0,6.845-1.454,12.721-3.937,17.628ZM260.184,173.655h-71.056c0,7.996,2.908,15.326,6.845,19.263,3.937,3.938,9.813,5.876,17.628,5.876,5.391,0,10.298-1.454,14.235-3.937,3.937-2.968,6.36-5.876,7.33-8.844h23.988c-3.937,11.752-9.813,20.111-17.628,25.503-7.814,4.907-17.143,7.814-28.41,7.814-7.814,0-14.72-1.454-21.081-3.937-6.361-2.423-11.267-5.876-15.689-10.783-4.422-4.422-7.814-9.813-9.813-16.174-2.423-6.361-3.453-13.206-3.453-21.081,0-7.33.969-14.235,3.453-20.596s5.876-11.752,10.298-16.659c4.422-4.422,9.813-8.359,15.689-10.783,6.36-2.423,12.721-3.938,20.596-3.938,8.359,0,15.689,1.454,22.05,4.907,6.361,3.453,11.267,7.33,15.205,13.206,3.937,5.391,6.845,11.752,8.844,18.597.969,6.845,1.454,13.751.969,21.565Z"/>
</svg>