<?xml version="1.0" encoding="UTF-8"?>
<svg id="Camada_1" data-name="Camada 1" xmlns="http://www.w3.org/2000/svg" viewBox="0 0 300 300">
  <defs>
    <style>
      .cls-1 {
        fill: #fff;
      }
    </style>
  </defs>
  <path class="cls-1" d="M150,162.948c-8.711,0-17.421-3.115-24.823-9.338l-69.89,61.276c3.548,1.909,7.602,2.995,11.905,2.995h165.616c4.303,0,8.357-1.086,11.905-2.995l-69.89-61.276c-7.402,6.224-16.112,9.339-24.823,9.339Z"/>
  <path class="cls-1" d="M49.163,76.099c-4.439,4.547-7.182,10.756-7.182,17.597v98.973c0,5.588,1.83,10.755,4.919,14.939l70.417-61.737L49.163,76.099Z"/>
  <path class="cls-1" d="M150,151.948c7.332,0,14.494-3.198,20.166-9.005l70.984-72.669c-2.663-1.174-5.48-1.788-8.342-1.788H67.192c-2.862,0-5.679.614-8.342,1.788l70.984,72.669c5.672,5.807,12.834,9.005,20.166,9.005Z"/>
  <path class="cls-1" d="M217.8,0H82.2C23.4,0,0,23.4,0,82.2v135.6c0,58.8,23.4,82.2,82.2,82.2h135.6c58.8,0,82.2-23.4,82.2-82.2V82.2C300,23.4,276.6,0,217.8,0ZM269.019,192.669c0,19.998-16.212,36.21-36.21,36.21H67.192c-19.998,0-36.21-16.212-36.21-36.21v-98.973c0-19.998,16.212-36.21,36.21-36.21h165.616c19.998,0,36.21,16.212,36.21,36.21v98.973Z"/>
  <path class="cls-1" d="M182.683,145.871l70.417,61.737c3.089-4.184,4.919-9.351,4.919-14.939v-98.973c0-6.841-2.743-13.05-7.182-17.597l-68.154,69.772Z"/>
</svg>