<?xml version="1.0" encoding="UTF-8"?>
<svg id="Camada_1" data-name="Camada 1" xmlns="http://www.w3.org/2000/svg" viewBox="0 0 300 300">
  <defs>
    <style>
      .cls-1 {
        fill: #fff;
      }
    </style>
  </defs>
  <path class="cls-1" d="M217.8,0H82.2C23.4,0,0,23.4,0,82.2v135.6C0,276.6,23.4,300,82.2,300h135.6c58.8,0,82.2-23.4,82.2-82.2V82.2C300,23.4,276.6,0,217.8,0ZM98.53,234.477h-40.923V102.345h40.923v132.132ZM77.872,85.043c-13.368,0-24.201-10.918-24.201-24.382s10.832-24.382,24.201-24.382,24.194,10.917,24.194,24.382-10.826,24.382-24.194,24.382ZM251.869,234.477h-40.723v-69.361c0-19.017-7.226-29.644-22.278-29.644-16.375,0-24.93,11.059-24.93,29.644v69.361h-39.246V102.345h39.246v17.798s11.8-21.835,39.84-21.835,48.091,17.115,48.091,52.511v83.658Z"/>
</svg>