<?xml version="1.0" encoding="UTF-8"?>
<svg id="Camada_1" xmlns="http://www.w3.org/2000/svg" version="1.1" viewBox="0 0 2272.06 2272.06">
  <!-- Generator: Adobe Illustrator 29.6.1, SVG Export Plug-In . SVG Version: 2.1.1 Build 9)  -->
  <defs>
    <style>
      .st0 {
        fill: #ff2834;
      }
    </style>
  </defs>
  <path class="st0" d="M1849.39,445.61c-12.82,13.52-19.24,36.98-19.24,70.4v1248.96c0,24.9,7.7,44.09,23.08,57.59,15.39,13.52,41.89,20.27,79.51,20.27h92.69c154.37-193.99,246.62-439.62,246.62-706.8s-93.48-516.09-249.71-710.68h-98.16c-37.06,0-61.99,6.76-74.81,20.26Z"/>
  <path class="st0" d="M1536.54,1922.83h-134.13l247.34-885.39v-245.17l-315.83,1130.56h-32.19l348.02-1245.78v-251.7l-418.12,1497.47h-57.6L723.83,431.75v1146.57c0,68.26,6.84,119.29,20.52,153.05,13.68,33.78,33.19,59.73,58.56,77.86,19.63,14.04,49.26,23.92,88.89,29.65,21.4,3.09,37.22,21.54,37.22,43.16v40.78h-477.07v-79.99c78.08-6.4,131.09-27.36,159.03-62.93,27.92-35.54,41.89-98.47,41.89-188.79V503.21c0-27.01-6.56-46.75-19.66-59.19-13.12-12.43-37.62-18.67-73.53-18.67h-107.73v-79.99h388.64c19.22,0,36.18,12.58,41.76,30.97l368.57,1214.79,34.1-122.15L944.93,345.36c19.23,0,36.2,12.59,41.77,31l313.86,1036.95,36.44-130.51-283.74-937.43c19.23,0,36.2,12.59,41.77,31l257.51,850.77,36.44-130.51-227.39-751.26c19.23,0,36.2,12.59,41.77,31l201.16,664.6,36.44-130.51-171.04-565.09c19.23,0,36.2,12.59,41.77,31l144.81,478.42,36.44-130.51-114.69-378.91c19.23,0,36.2,12.59,41.77,31l88.46,292.25,36.44-130.51-58.34-192.74c19.23,0,36.2,12.59,41.77,31l32.11,106.07,38.27-137.07h353.01C1745.25,132.38,1456.1,0,1136.03,0,508.62,0,0,508.62,0,1136.03s508.62,1136.03,1136.03,1136.03c322.01,0,612.72-133.99,819.44-349.24h-418.93Z"/>
  <polygon class="st0" points="1649.76 1152.66 1456.95 1842.83 1526.7 1842.83 1649.76 1402.34 1649.76 1152.66"/>
  <path class="st0" d="M1649.76,1764.98v-247.42l-90.87,325.27c30.84-.02,53.68-7.31,68.54-21.86,14.88-14.57,22.33-33.23,22.33-56Z"/>
</svg>